<?xml version="1.0" standalone="no"?>
<!DOCTYPE svg PUBLIC "-//W3C//DTD SVG 20010904//EN"
 "http://www.w3.org/TR/2001/REC-SVG-20010904/DTD/svg10.dtd">
<svg version="1.0" xmlns="http://www.w3.org/2000/svg"
 width="1080.000000pt" height="1080.000000pt" viewBox="0 0 1080.000000 1080.000000"
 preserveAspectRatio="xMidYMid meet">

<g transform="translate(0.000000,1080.000000) scale(0.100000,-0.100000)"
fill="#872EC4" stroke="none">
<path d="M2025 10793 c-943 -84 -1730 -755 -1960 -1673 -13 -52 -32 -144 -42
-205 -17 -105 -18 -266 -18 -3515 0 -3249 1 -3410 18 -3515 81 -488 289 -899
626 -1236 337 -337 748 -545 1236 -626 105 -17 266 -18 3515 -18 3249 0 3410
1 3515 18 484 80 901 292 1236 626 334 335 546 752 626 1236 17 105 18 266 18
3515 0 3249 -1 3410 -18 3515 -106 638 -439 1160 -968 1516 -254 170 -525 278
-864 342 l-110 21 -3385 1 c-1862 1 -3403 0 -3425 -2z m3718 -1508 c727 -70
1391 -340 1967 -799 158 -126 437 -405 562 -561 443 -556 701 -1168 794 -1880
21 -164 29 -523 15 -700 -71 -898 -438 -1701 -1066 -2331 -222 -222 -430 -388
-682 -544 -126 -78 -342 -195 -348 -188 -3 2 17 176 44 387 35 282 51 385 62
391 8 5 59 42 114 82 620 458 1044 1119 1194 1863 42 207 55 349 55 610 0 268
-12 388 -60 625 -93 450 -313 916 -610 1288 -103 129 -343 369 -474 472 -373
296 -819 507 -1278 604 -223 47 -357 60 -632 60 -275 0 -409 -13 -632 -60
-459 -97 -905 -308 -1278 -604 -131 -103 -371 -343 -474 -472 -242 -304 -435
-672 -549 -1048 -86 -284 -121 -532 -121 -865 0 -261 13 -403 55 -610 150
-744 574 -1405 1194 -1863 55 -40 106 -77 114 -82 11 -6 27 -109 62 -391 27
-211 47 -385 44 -387 -6 -7 -222 110 -348 188 -490 303 -927 742 -1222 1230
-371 613 -552 1299 -532 2015 9 296 36 499 102 770 129 525 366 1004 713 1440
125 156 404 435 562 561 572 455 1239 728 1955 799 178 17 519 18 698 0z m-33
-1270 c805 -105 1509 -611 1865 -1340 168 -343 247 -678 247 -1055 1 -605
-205 -1152 -608 -1615 l-69 -79 -16 102 c-34 200 -88 364 -174 530 l-44 85 41
70 c97 167 170 360 210 559 20 99 23 142 23 343 -1 211 -3 240 -28 356 -14 69
-40 166 -57 215 -45 130 -160 355 -237 464 -87 122 -301 336 -423 422 -193
137 -444 246 -690 300 -93 20 -132 22 -350 22 -218 0 -257 -2 -350 -22 -246
-54 -497 -163 -690 -300 -122 -86 -336 -300 -423 -422 -77 -109 -192 -334
-237 -464 -17 -49 -43 -146 -57 -215 -25 -116 -27 -145 -28 -356 0 -201 3
-244 23 -343 40 -199 113 -392 210 -559 l41 -70 -44 -85 c-86 -166 -140 -330
-174 -530 l-16 -102 -69 79 c-403 463 -609 1010 -608 1615 1 918 523 1752
1353 2164 284 141 573 218 939 250 77 7 330 -4 440 -19z m-75 -1275 c452 -120
758 -559 707 -1016 -45 -401 -335 -730 -727 -825 -44 -10 -98 -19 -120 -20
-27 0 -7 -7 61 -18 260 -46 451 -141 623 -310 163 -159 268 -353 317 -581 34
-161 27 -256 -85 -1139 -56 -442 -106 -825 -112 -850 -6 -25 -29 -84 -51 -131
-76 -161 -238 -290 -419 -334 -96 -23 -762 -23 -858 0 -181 44 -343 173 -419
334 -22 47 -45 106 -51 131 -6 25 -56 408 -112 850 -112 883 -119 978 -85
1139 49 228 154 422 317 581 172 169 363 264 623 310 68 11 88 18 61 18 -58 2
-188 35 -274 70 -170 71 -347 226 -445 389 -338 564 -5 1291 649 1418 99 19
297 12 400 -16z"/>
</g>
</svg>
