<svg xmlns="http://www.w3.org/2000/svg" width="28" height="12" fill="none"><g fill="#000" clip-path="url(#a)"><path d="M3.152 2.58c-1.214 0-1.69-.27-1.789-.874h.722c.035.267.397.356 1.124.356.775 0 .947-.102.947-.267 0-.232-.521-.248-1.109-.277-.762-.04-1.64-.11-1.64-.717 0-.53.519-.782 1.64-.782 1.233 0 1.652.4 1.712.839L4.032.86C4.003.683 3.698.537 3.022.537c-.81 0-.94.066-.94.232 0 .206.584.206 1.213.247.978.064 1.55.16 1.55.753 0 .534-.527.81-1.693.81ZM7.596.594v1.948h-.67V.594H5.558V.06h3.4v.534H7.594ZM9.889 2.542V.06h2.958v.534h-2.31v.442h2.256v.517h-2.256v.455h2.338v.534H9.89ZM17.122 1.198a.73.73 0 0 1-.49.298l.905 1.046h-.74l-.841-.973h-1.274v.973h-.652V.06h2.154c.436 0 .734.111.89.274a.602.602 0 0 1 .159.438.74.74 0 0 1-.111.426Zm-.579-.515c-.066-.07-.152-.105-.362-.105h-1.5v.477h1.538c.203 0 .286-.032.33-.093a.238.238 0 0 0 .048-.142.179.179 0 0 0-.054-.137ZM18.544 2.542V.06h2.958v.534h-2.31v.442h2.256v.517h-2.256v.455h2.338v.534h-2.986ZM25.904.46c.264.236.353.493.353.83 0 .337-.12.623-.346.83-.318.314-.861.46-1.557.46s-1.172-.165-1.512-.451a1.056 1.056 0 0 1-.388-.845c0-.312.102-.566.35-.795C23.19.13 23.66 0 24.357 0s1.188.143 1.547.46Zm-.489 1.275a.586.586 0 0 0 .175-.442c0-.162-.045-.34-.188-.46C25.17.634 24.875.53 24.351.53c-.496 0-.858.127-1.042.314a.61.61 0 0 0-.188.448c0 .2.054.353.229.49.244.19.54.276 1.004.276.508 0 .826-.092 1.06-.324h.001ZM5.64 5.739v-.607L3.985 6.546l1.653 1.413v-.53H23.44a2.288 2.288 0 0 1 2.285 2.286A2.288 2.288 0 0 1 23.44 12h3.861V5.739H5.64Z"/><path d="M24.075 9.734 22.42 8.321v.548h-17.8a2.288 2.288 0 0 1-2.286-2.285A2.288 2.288 0 0 1 4.621 4.3H.76v6.261H22.42v.588l1.654-1.414Z"/></g><defs><clipPath id="a"><path fill="#fff" d="M.76 0H27.3v12H.76z"/></clipPath></defs></svg>